<?xml version="1.0" encoding="UTF-8"?>
<svg version="1.1" xmlns="http://www.w3.org/2000/svg" width="1891" height="493">
<path d="M0 0 C68.31 0 136.62 0 207 0 C207 162.69 207 325.38 207 493 C206.34 493 205.68 493 205 493 C204.51869629 491.83170654 204.03739258 490.66341309 203.54150391 489.4597168 C194.03617735 466.39258248 184.49191806 443.34269563 174.84423828 420.3347168 C174.09535245 418.54867591 173.34649192 416.76262442 172.59765625 414.9765625 C172.22495605 414.08763809 171.85225586 413.19871368 171.46826172 412.28285217 C166.96153629 401.52911548 162.48156936 390.76423791 158 380 C151.63882869 364.72336169 145.26694833 349.45128801 138.875 334.1875 C138.50663025 333.30782562 138.1382605 332.42815125 137.75872803 331.52182007 C135.17307221 325.34763416 132.5866326 319.17377674 130 313 C127.04111502 305.93773098 124.08259963 298.87530742 121.125 291.8125 C120.75679138 290.93322845 120.38858276 290.05395691 120.00921631 289.14804077 C113.56458314 273.75631653 107.14433625 258.35449178 100.7300415 242.95010376 C94.8351488 228.79371108 88.92566794 214.64353722 83 200.5 C76.22304745 184.32459469 69.47089603 168.13898128 62.72949219 151.94873047 C56.46921932 136.91491892 50.19093028 121.88877313 43.89752197 106.86880493 C39.58549916 96.57694641 35.28111137 86.28197757 30.9921875 75.98046875 C30.57026123 74.96708435 30.14833496 73.95369995 29.71362305 72.90960693 C28.0135871 68.82597284 26.3137504 64.74225631 24.61486816 60.65814209 C20.16331915 49.95726134 15.69800002 39.26273181 11.1796875 28.58984375 C10.61125626 27.24592812 10.61125626 27.24592812 10.03134155 25.87486267 C8.24940741 21.66283968 6.46375486 17.45246662 4.67138672 13.24487305 C4.04642049 11.77007419 3.42157563 10.29522388 2.796875 8.8203125 C2.51045135 8.15196884 2.22402771 7.48362518 1.92892456 6.79502869 C0 2.22693953 0 2.22693953 0 0 Z " fill="#FA0F00" transform="translate(350,0)"/>
<path d="M0 0 C67.98 0 135.96 0 206 0 C205.14128969 5.15226187 203.84009273 9.1950847 201.78125 13.89453125 C201.45185928 14.66164429 201.12246857 15.42875732 200.78309631 16.21911621 C200.06913783 17.88040419 199.35227987 19.54044846 198.63284302 21.19937134 C196.67731539 25.71018635 194.74444332 30.23071382 192.80859375 34.75 C192.40760971 35.68459549 192.00662567 36.61919098 191.5934906 37.58210754 C187.50409727 47.12635337 183.52518713 56.71511125 179.5625 66.3125 C178.1463882 69.73851083 176.72958987 73.16423737 175.3125 76.58984375 C174.95934219 77.44368149 174.60618439 78.29751923 174.24232483 79.17723083 C170.20937686 88.92111129 166.13767168 98.64871952 162.0625 108.375 C161.50210526 109.71271454 161.50210526 109.71271454 160.9303894 111.07745361 C158.6628224 116.49004833 156.39435687 121.90226611 154.12567139 127.31439209 C150.79048912 135.27141399 147.45734821 143.22929086 144.125 151.1875 C143.57309494 152.50545563 143.57309494 152.50545563 143.01004028 153.85003662 C136.99045038 168.22660253 130.99157556 182.61173918 125 197 C116.4305292 217.57885769 107.83138056 238.14514909 99.21777344 258.70556641 C96.98021257 264.04682084 94.74384212 269.38857314 92.5078125 274.73046875 C92.13615967 275.61835083 91.76450684 276.50623291 91.3815918 277.42102051 C90.25437524 280.1140056 89.12718281 282.80700078 88 285.5 C79.73543615 305.24521244 79.73543615 305.24521244 75.67633057 314.93417358 C67.43139295 334.61469089 59.2027263 354.30184814 51 374 C42.81862509 393.64687831 34.61156488 413.28286118 26.38711548 432.91174316 C24.01372365 438.57712839 21.64348441 444.24382368 19.27523804 449.91136169 C17.6234463 453.86431643 15.97094082 457.81697264 14.31842041 461.7696228 C13.53303766 463.64872927 12.74799425 465.52797761 11.96331787 467.40737915 C10.87489975 470.01415792 9.78523202 472.62041119 8.6953125 475.2265625 C8.22149139 476.36276787 8.22149139 476.36276787 7.73809814 477.52192688 C5.5646513 482.71435921 3.30462658 487.86450096 1 493 C0.67 493 0.34 493 0 493 C0 330.31 0 167.62 0 0 Z " fill="#FA0F00" transform="translate(0,0)"/>
<path d="M0 0 C2.39099121 -0.38095093 2.39099121 -0.38095093 5.42773438 -0.38818359 C6.56231079 -0.39764008 7.69688721 -0.40709656 8.86584473 -0.4168396 C10.71115784 -0.40773056 10.71115784 -0.40773056 12.59375 -0.3984375 C13.85135132 -0.40130768 15.10895264 -0.40417786 16.40466309 -0.40713501 C19.06810252 -0.40917987 21.73072052 -0.40512067 24.39404297 -0.39111328 C27.81084964 -0.3740206 31.22694944 -0.38386058 34.64373016 -0.40183067 C37.89792898 -0.41526686 41.15204197 -0.40586446 44.40625 -0.3984375 C45.63645874 -0.40451019 46.86666748 -0.41058289 48.13415527 -0.4168396 C49.26873169 -0.40738312 50.40330811 -0.39792664 51.57226562 -0.38818359 C53.07545349 -0.38460342 53.07545349 -0.38460342 54.60900879 -0.38095093 C55.79254944 -0.19238022 55.79254944 -0.19238022 57 0 C59.54875097 3.82312645 59.26671414 6.89902399 59.22705078 11.3269043 C59.22734283 12.17590302 59.22763489 13.02490173 59.22793579 13.89962769 C59.22654163 16.70792841 59.21097636 19.51596433 59.1953125 22.32421875 C59.19158268 24.27049108 59.18873556 26.21676528 59.18673706 28.16304016 C59.17909819 33.28737567 59.15944748 38.41159793 59.1373291 43.53588867 C59.11687617 48.76414457 59.10773652 53.99241876 59.09765625 59.22070312 C59.07620186 69.48051852 59.04206282 79.74024985 59 90 C60.43429604 89.68684845 60.43429604 89.68684845 61.89756775 89.36737061 C63.15461014 89.09499573 64.41165253 88.82262085 65.70678711 88.54199219 C67.57420815 88.13602814 67.57420815 88.13602814 69.47935486 87.72186279 C98.54273405 81.76279244 129.99884305 87.00558434 155 103 C177.06327512 118.66075599 189.3983342 141.00252541 195 167 C199.80916666 196.65121961 194.99320898 229.79356499 177.72900391 254.84423828 C158.06902174 282.05745179 128.945972 299.08127864 95.9375 304.875 C67.20567198 309.46282415 38.1675852 306.7474058 10 300 C8.57421631 299.6594458 8.57421631 299.6594458 7.11962891 299.31201172 C6.22034668 299.07369629 5.32106445 298.83538086 4.39453125 298.58984375 C3.5950708 298.38093506 2.79561035 298.17202637 1.97192383 297.95678711 C-0.6115728 296.70326188 -0.95269491 295.64442126 -2 293 C-2.25069833 290.64716953 -2.25069833 290.64716953 -2.25168228 287.98715115 C-2.25689778 286.97085233 -2.26211327 285.95455352 -2.26748681 284.90745777 C-2.26302537 283.79278049 -2.25856392 282.67810321 -2.25396729 281.52964783 C-2.25864726 279.75135105 -2.25864726 279.75135105 -2.26342177 277.93712908 C-2.27002667 274.64542145 -2.2676389 271.35394151 -2.26144934 268.06224763 C-2.25693103 264.51279877 -2.26390548 260.96337005 -2.26940918 257.41392517 C-2.27831121 250.46044755 -2.27637765 243.50701305 -2.2705839 236.55353373 C-2.26607096 230.90386041 -2.26545291 225.25419921 -2.26763153 219.60452461 C-2.267938 218.80107798 -2.26824446 217.99763135 -2.26856022 217.16983785 C-2.26919965 215.53777118 -2.26984808 213.90570451 -2.2705054 212.27363784 C-2.27621097 196.96334698 -2.26964705 181.65308005 -2.25890467 166.34279311 C-2.24996724 153.19783642 -2.25152233 140.05291504 -2.26074219 126.90795898 C-2.27143788 111.65168045 -2.27566342 96.3954229 -2.26951766 81.13914114 C-2.26888054 79.51331397 -2.2682518 77.8874868 -2.26763153 76.26165962 C-2.26732298 75.46166973 -2.26701443 74.66167984 -2.26669653 73.83744783 C-2.26496761 68.19220903 -2.26788889 62.5469835 -2.27259064 56.90174675 C-2.27819161 50.02555149 -2.27669951 43.1494019 -2.26602915 36.27321189 C-2.2607621 32.76299997 -2.2587332 29.2528643 -2.26532745 25.74265289 C-2.27235796 21.94284803 -2.26398046 18.14316886 -2.25396729 14.34336853 C-2.25842873 13.22646053 -2.26289017 12.10955253 -2.26748681 10.95879883 C-2.26227132 9.94510776 -2.25705582 8.93141669 -2.25168228 7.88700771 C-2.25135758 7.009364 -2.25103287 6.13172028 -2.25069833 5.22748131 C-2 3 -2 3 0 0 Z M59 140 C59 177.95 59 215.9 59 255 C73.43244664 259.81081555 92.63168777 255.89374004 105.8125 249.3125 C120.05805854 240.84560042 128.17525967 228.66155943 133 213 C137.52097071 195.12803765 135.91437372 175.44026178 127.0703125 159.1953125 C119.56609899 147.61333769 109.39400946 141.34577746 96.125 138.125 C83.03222773 135.71317353 72.33156127 137.50033226 59 140 Z " fill="#FA0F00" transform="translate(1480,93)"/>
<path d="M0 0 C1.15790039 -0.00315216 2.31580078 -0.00630432 3.50878906 -0.009552 C5.39936035 -0.00651566 5.39936035 -0.00651566 7.328125 -0.00341797 C8.61170898 -0.00437469 9.89529297 -0.00533142 11.21777344 -0.00631714 C13.93816324 -0.00779378 16.65852025 -0.00564066 19.37890625 -0.00097656 C22.87297169 0.00472073 26.36696033 0.00144154 29.86102295 -0.00454903 C33.18339653 -0.00902301 36.50574923 -0.00589432 39.828125 -0.00341797 C41.08850586 -0.0054422 42.34888672 -0.00746643 43.64746094 -0.009552 C44.80536133 -0.00639984 45.96326172 -0.00324768 47.15625 0 C48.18137695 0.00079559 49.20650391 0.00159119 50.26269531 0.00241089 C52.578125 0.12939453 52.578125 0.12939453 53.578125 1.12939453 C53.68002315 2.66699869 53.7121064 4.20927532 53.7167902 5.75024509 C53.72226464 6.75545407 53.72773909 7.76066304 53.73337942 8.7963329 C53.73435753 9.91401316 53.73533564 11.03169343 53.73634338 12.1832428 C53.74128136 13.3601603 53.74621934 14.53707781 53.75130695 15.74965948 C53.76406413 19.03106268 53.77232126 22.312423 53.77873361 25.5938412 C53.78671498 29.12692977 53.80042049 32.65999653 53.81344604 36.19306946 C53.83524103 42.31922284 53.85337441 48.44537839 53.86905098 54.57155037 C53.89172217 63.4290671 53.91986875 72.28655971 53.94937026 81.14405601 C53.99707999 95.51326304 54.04033498 109.8824799 54.08081055 124.25170898 C54.1201483 138.21363085 54.16157037 152.17554395 54.20581055 166.13745117 C54.20853482 166.99744317 54.21125909 167.85743518 54.21406592 168.74348754 C54.22774511 173.05762954 54.24146544 177.3717714 54.25520623 181.68591321 C54.3692241 217.50038881 54.47602167 253.31488308 54.578125 289.12939453 C51.21225765 290.42454885 47.84468946 291.71522364 44.47680664 293.00512695 C43.52865334 293.37002983 42.58050003 293.73493271 41.60361481 294.11089325 C35.15279181 296.57825792 28.72854426 298.79221804 22.015625 300.44189453 C20.60047607 300.79997192 20.60047607 300.79997192 19.15673828 301.1652832 C-18.75443841 310.44169209 -63.41967918 311.67188215 -97.97924805 290.98583984 C-120.76462039 276.6217687 -134.69482848 255.05324448 -141.421875 229.30126953 C-148.3482836 196.93362937 -143.55412099 164.52717202 -126.421875 136.12939453 C-108.8327892 110.26076159 -81.98182621 94.9637842 -51.83398438 88.58154297 C-37.26561978 85.81212219 -21.05069835 84.09137412 -6.421875 87.12939453 C-6.42409561 86.05420059 -6.42631622 84.97900665 -6.42860413 83.87123108 C-6.4488349 73.76155252 -6.46384683 63.65187805 -6.47368717 53.54218388 C-6.47891616 48.34411338 -6.4860141 43.14605917 -6.49731445 37.94799805 C-6.50814276 32.93597185 -6.51415171 27.92396135 -6.51675224 22.91192436 C-6.51860659 20.99527171 -6.5222274 19.07861996 -6.52760506 17.16197395 C-6.53481475 14.48711381 -6.53586597 11.8123194 -6.53540039 9.13745117 C-6.53899567 8.33688293 -6.54259094 7.5363147 -6.54629517 6.71148682 C-6.53414241 0.30217827 -6.3244706 0.00490837 0 0 Z M-69.421875 156.12939453 C-80.81526391 171.15897139 -84.45701278 188.54099306 -81.921875 207.15283203 C-79.6032947 221.88748881 -74.40023305 235.1660952 -62.48046875 244.72314453 C-50.9155591 252.62327256 -38.97442543 255.3528294 -25.171875 255.44189453 C-23.93050781 255.450354 -23.93050781 255.450354 -22.6640625 255.45898438 C-16.77660108 255.38962331 -12.48279954 254.47626665 -6.421875 253.12939453 C-6.421875 215.17939453 -6.421875 177.22939453 -6.421875 138.12939453 C-29.48637914 133.93584832 -53.22852467 137.63126051 -69.421875 156.12939453 Z " fill="#FA0F00" transform="translate(1148.421875,92.87060546875)"/>
<path d="M0 0 C1.27463104 0.00444122 2.54926208 0.00888245 3.86251831 0.01345825 C4.56506744 0.0131662 5.26761658 0.01287415 5.99145508 0.01257324 C8.31822984 0.0139688 10.64468607 0.02954031 12.97140503 0.04519653 C14.58280258 0.04892587 16.1942024 0.05177321 17.80560303 0.05377197 C22.05042767 0.06141472 26.29511583 0.08106864 30.53988647 0.10317993 C34.86990513 0.1236246 39.19994579 0.13277073 43.52999878 0.14285278 C52.02875939 0.16431399 60.52740899 0.19845758 69.02609253 0.24050903 C72.10693597 6.85192741 74.65644772 13.56715586 77.04562378 20.45535278 C77.60833733 22.06228249 77.60833733 22.06228249 78.18241882 23.70167542 C78.98626135 25.99821936 79.788456 28.29534065 80.58914185 30.59298706 C82.72057454 36.70866105 84.8644459 42.81997674 87.00656128 48.93191528 C87.65099182 50.77221313 87.65099182 50.77221313 88.30844116 52.64968872 C92.04723112 63.32014326 95.8373405 73.97165732 99.65109253 84.61550903 C100.87157476 88.02420934 102.09158707 91.43307755 103.31124878 94.84207153 C103.61408783 95.68850723 103.91692688 96.53494293 104.22894287 97.4070282 C107.87101955 107.59365151 111.47993189 117.79201056 115.08859253 127.99050903 C116.51693891 132.02698118 117.94530404 136.06344669 119.37374878 140.09988403 C119.74185669 141.14008698 120.1099646 142.18028992 120.48922729 143.25201416 C125.56039081 157.57918861 130.64618752 171.90117502 135.73008347 186.22383499 C140.84639409 200.6379149 145.96147737 215.05241836 151.06515503 229.47097778 C151.65547516 231.13859665 151.65547516 231.13859665 152.25772095 232.83990479 C154.08877581 238.01290145 155.91922541 243.18611116 157.74874878 248.35964966 C158.23948883 249.74617233 158.23948883 249.74617233 158.74014282 251.16070557 C159.35992318 252.91255566 159.97882052 254.66471848 160.59671021 256.41723633 C162.45258005 261.66973915 164.37212666 266.8925964 166.41036987 272.07766724 C167.02609253 274.24050903 167.02609253 274.24050903 167.02609253 279.24050903 C146.56609253 279.24050903 126.10609253 279.24050903 105.02609253 279.24050903 C100.52567152 269.11456177 100.52567152 269.11456177 98.93551636 264.41702271 C98.57867264 263.3695134 98.22182892 262.32200409 97.85417175 261.24275208 C97.29925301 259.5922863 97.29925301 259.5922863 96.73312378 257.90847778 C96.34162643 256.75430862 95.95012909 255.60013947 95.54676819 254.41099548 C94.72546404 251.98708411 93.90618544 249.56248555 93.08883667 247.13723755 C91.83614765 243.42075555 90.57716379 239.70645225 89.31710815 235.99246216 C88.51791366 233.63125801 87.71907306 231.26993403 86.92062378 228.90847778 C86.54460526 227.79804611 86.16858673 226.68761444 85.78117371 225.54353333 C85.43378647 224.51178482 85.08639923 223.48003632 84.72848511 222.41702271 C84.42300247 221.51151169 84.11751984 220.60600067 83.80278015 219.67304993 C83.12618084 217.55397986 82.56560454 215.39855708 82.02609253 213.24050903 C34.01109253 213.73550903 34.01109253 213.73550903 -14.97390747 214.24050903 C-20.01699264 230.06411872 -20.01699264 230.06411872 -25.05471802 245.88943481 C-35.08755356 277.35415512 -35.08755356 277.35415512 -36.97390747 279.24050903 C-38.71773283 279.33938695 -40.46556291 279.36849935 -42.21218872 279.36990356 C-43.33004761 279.37305573 -44.44790649 279.37620789 -45.59963989 279.37945557 C-46.81627319 279.37743134 -48.03290649 279.3754071 -49.28640747 279.37332153 C-50.52559937 279.37427826 -51.76479126 279.37523499 -53.04153442 279.3762207 C-55.66779028 279.37690277 -58.29395381 279.37554441 -60.92019653 279.37088013 C-64.29319461 279.36518284 -67.66611312 279.36846205 -71.03910828 279.37445259 C-74.24654424 279.37892674 -77.45397047 279.37579786 -80.66140747 279.37332153 C-81.87804077 279.37534576 -83.09467407 279.37737 -84.34817505 279.37945557 C-85.46603394 279.37630341 -86.58389282 279.37315125 -87.73562622 279.36990356 C-88.72522339 279.36910797 -89.71482056 279.36831238 -90.73440552 279.36749268 C-92.97390747 279.24050903 -92.97390747 279.24050903 -93.97390747 278.24050903 C-93.53937628 271.94091871 -91.90797573 266.48921283 -89.79031372 260.56863403 C-89.46352127 259.63425507 -89.13672882 258.6998761 -88.80003357 257.73718262 C-87.71941381 254.65235698 -86.62782284 251.57152988 -85.53640747 248.49050903 C-84.76942241 246.30640743 -84.00332573 244.12199367 -83.23806763 241.93728638 C-81.63261512 237.35535334 -80.02373067 232.77464568 -78.41287231 228.1946106 C-74.89793541 218.18774868 -71.43964194 208.1613399 -67.97833252 198.13583374 C-61.92033475 180.59450172 -55.82516264 163.06640166 -49.7013855 145.54794312 C-43.21504039 126.98605337 -36.80935185 108.39647629 -30.41629028 89.80227661 C-26.46270139 78.31018494 -22.48931538 66.82635036 -18.43484497 55.36941528 C-17.73428962 53.38440142 -17.03376782 51.39937572 -16.33328247 49.41433716 C-15.05335668 45.78860562 -13.76293281 42.16686097 -12.46609497 38.54714966 C-8.44465678 27.22524909 -5.94474598 16.72987945 -5.31765747 4.67410278 C-4.78740791 0.92017691 -3.71881566 0.30075205 0 0 Z M33.02609253 53.24050903 C31.0242976 59.11858492 29.17019668 65.01995917 27.45187378 70.98660278 C26.95187655 72.70555338 26.45144912 74.42437888 25.95065308 76.14309692 C25.68843964 77.04400055 25.4262262 77.94490417 25.15606689 78.87310791 C19.14216125 99.50789649 12.71354261 119.99171943 6.05661011 140.42776489 C5.72089996 141.46327484 5.38518982 142.49878479 5.03930664 143.56567383 C4.40795325 145.51212006 3.77287327 147.45736278 3.13348389 149.40118408 C2.71523849 150.69172195 2.71523849 150.69172195 2.2885437 152.0083313 C2.04351608 152.75720108 1.79848846 153.50607086 1.54603577 154.27763367 C0.89806374 156.38541121 0.89806374 156.38541121 1.02609253 159.24050903 C22.47609253 159.24050903 43.92609253 159.24050903 66.02609253 159.24050903 C63.62256471 150.38164565 63.62256471 150.38164565 60.99240112 141.6086731 C60.43569229 139.83801483 60.43569229 139.83801483 59.86773682 138.03158569 C59.47397858 136.78568665 59.08022034 135.5397876 58.67453003 134.25613403 C58.25169643 132.91131144 57.82914675 131.56639955 57.40686035 130.22140503 C55.63694447 124.58589351 53.86218769 118.95191132 52.08517456 113.31863403 C45.79369656 93.36717778 39.76716538 73.35770291 34.02609253 53.24050903 C33.69609253 53.24050903 33.36609253 53.24050903 33.02609253 53.24050903 Z " fill="#FA0F00" transform="translate(831.9739074707031,115.75949096679688)"/>
<path d="M0 0 C20.74736519 18.16178395 33.12372618 44.53515016 35.54248047 71.95458984 C37.3767933 100.19806649 33.31712174 125.35648304 19.6875 150.1875 C19.17832031 151.15171875 18.66914062 152.1159375 18.14453125 153.109375 C6.05066458 174.12596592 -15.90685763 187.89463207 -38.6875 194.4375 C-68.03703985 201.72931114 -99.99248902 199.12819951 -126.48828125 183.96875 C-130.69235745 181.31721647 -134.53184354 178.40805921 -138.3125 175.1875 C-139.04984375 174.59453125 -139.7871875 174.0015625 -140.546875 173.390625 C-155.64364878 160.79262757 -164.9286573 142.80021334 -170.3125 124.1875 C-170.63009277 123.11097168 -170.63009277 123.11097168 -170.95410156 122.01269531 C-174.16044767 110.60501384 -174.69987536 99.2177872 -174.75 87.4375 C-174.75626404 86.75042969 -174.76252808 86.06335938 -174.76898193 85.35546875 C-174.92611301 58.10421831 -166.22476104 30.30760293 -147.3125 10.1875 C-146.49394531 9.27871094 -145.67539063 8.36992187 -144.83203125 7.43359375 C-108.60273338 -31.04331196 -40.15641243 -33.8343959 0 0 Z M-100.0625 40.875 C-112.73575986 56.44074505 -115.60057915 77.40979377 -113.86279297 96.84179688 C-112.1506101 112.38152643 -107.50186053 127.19168282 -95.88671875 138.17578125 C-85.0090198 146.67656267 -73.68528807 148.36077593 -60.3125 147.1875 C-50.04241357 144.89214224 -41.25833242 137.70148539 -35.3125 129.1875 C-24.07766573 109.3023708 -22.98096785 85.63816098 -28.125 63.7265625 C-31.62689688 51.44074093 -37.00077249 40.34214869 -48.140625 33.43359375 C-66.48891412 23.671363 -85.47335065 25.55160462 -100.0625 40.875 Z " fill="#FA0F00" transform="translate(1409.3125,201.8125)"/>
<path d="M0 0 C17.30525896 15.57185206 27.40469515 36.48034394 30.24414062 59.50146484 C30.34463574 62.10065686 30.40783304 64.67247343 30.41210938 67.27099609 C30.41543777 67.99204025 30.41876617 68.71308441 30.42219543 69.45597839 C30.42722757 70.97284311 30.42960492 72.48971875 30.42944336 74.0065918 C30.43162484 76.29739104 30.44980628 78.58770394 30.46875 80.87841797 C30.5320813 97.00335653 30.5320813 97.00335653 28.24414062 103.50146484 C23.61996678 108.12563869 13.71548723 106.61741268 7.51150513 106.62588501 C6.44407074 106.62228973 5.37663635 106.61869446 4.27685547 106.61499023 C2.54828308 106.61520927 2.54828308 106.61520927 0.78479004 106.61543274 C-2.99180032 106.61474083 -6.76834022 106.60698245 -10.54492188 106.59912109 C-13.17621839 106.59725435 -15.80751526 106.59583166 -18.43881226 106.59483337 C-24.63628207 106.59173833 -30.83373402 106.58354982 -37.031196 106.57348388 C-44.09295973 106.5622657 -51.15472436 106.55679798 -58.2164948 106.55178845 C-72.72962549 106.54136548 -87.24274218 106.52380177 -101.75585938 106.50146484 C-100.99484234 109.04549004 -100.22545677 111.58647677 -99.45117188 114.12646484 C-99.13273315 115.19574219 -99.13273315 115.19574219 -98.80786133 116.28662109 C-95.27701628 127.79651598 -89.2959319 135.52513506 -78.75585938 141.50146484 C-52.77703202 153.62491761 -23.45213048 150.51816735 3.24414062 142.50146484 C4.36820313 142.17404297 5.49226563 141.84662109 6.65039062 141.50927734 C8.85409259 140.85930907 11.05053102 140.1847203 13.24414062 139.50146484 C14.80110126 141.05842548 14.42526993 142.59150222 14.48461914 144.75830078 C14.51036514 145.66304138 14.53611115 146.56778198 14.56263733 147.49993896 C14.64663366 151.65167865 14.71268185 155.80323215 14.7590332 159.95556641 C14.79067229 162.14596477 14.83842542 164.33619189 14.90258789 166.52587891 C14.99379698 169.67985596 15.03263832 172.83074348 15.06054688 175.98583984 C15.0987001 176.96309021 15.13685333 177.94034058 15.17616272 178.94720459 C15.15718466 185.58333463 15.15718466 185.58333463 12.55133057 188.20370483 C10.48948618 189.5264319 8.50130657 190.55442879 6.24414062 191.50146484 C5.52661118 191.80641373 4.80908173 192.11136261 4.06980896 192.42555237 C2.02531373 193.25039071 -0.03240679 193.95095805 -2.13085938 194.62646484 C-2.90397461 194.87871826 -3.67708984 195.13097168 -4.47363281 195.39086914 C-37.8594417 205.82984072 -80.01365226 205.19844069 -111.75585938 189.50146484 C-135.10201424 177.030148 -149.76973235 156.92853033 -158.06835938 132.06396484 C-166.01042163 103.33134849 -164.70172481 73.49282267 -154.75585938 45.50146484 C-154.3871875 44.45474609 -154.01851562 43.40802734 -153.63867188 42.32958984 C-144.67606718 18.96500657 -126.50147263 -0.38412236 -103.83789062 -10.77978516 C-70.98056771 -25.02242237 -28.1940548 -24.06216746 0 0 Z M-91.75585938 41.50146484 C-96.80669417 47.9953953 -101.75585938 56.04632217 -101.75585938 64.50146484 C-77.00585938 64.50146484 -52.25585938 64.50146484 -26.75585938 64.50146484 C-25.22165184 56.83042717 -27.30814587 50.34972902 -31.44335938 43.75146484 C-37.27428764 35.76252147 -43.94194299 30.5340039 -53.75585938 28.50146484 C-68.56590038 27.05330559 -81.51776012 29.98360319 -91.75585938 41.50146484 Z " fill="#FA0F00" transform="translate(1860.755859375,198.49853515625)"/>
<path d="M0 0 C2.75707041 3.30899506 4.27836375 6.70855368 5.90625 10.68359375 C6.3210965 11.68851868 6.3210965 11.68851868 6.74432373 12.71374512 C7.34815393 14.1779366 7.94942804 15.64318419 8.54846191 17.10934448 C10.2129992 21.18201558 11.89740905 25.24648564 13.578125 29.3125 C13.93501404 30.1774559 14.29190308 31.0424118 14.65960693 31.93357849 C18.7996455 41.95884553 23.02426523 51.94812946 27.25 61.9375 C28.0553258 63.84282581 28.86058246 65.74818084 29.66577148 67.65356445 C31.70342628 72.4749068 33.74193346 77.29588822 35.78070068 82.11676025 C39.3761705 90.6188576 42.97015816 99.12158053 46.5625 107.625 C46.95495911 108.55387024 47.34741821 109.48274048 47.75177002 110.4397583 C53.95077201 125.11426432 60.10822477 139.80583253 66.24978638 154.50445557 C71.62090945 167.35592453 77.0402594 180.1859427 82.5 193 C88.34096051 206.70878366 94.13004016 220.43820692 99.875 234.1875 C105.93092673 248.67961969 112.00599386 263.16344359 118.112854 277.63418579 C118.94499128 279.60604008 119.77682609 281.57802204 120.6083374 283.55014038 C121.7666024 286.29684353 122.92606998 289.04303573 124.0859375 291.7890625 C124.42371216 292.59033066 124.76148682 293.39159882 125.10949707 294.21714783 C127.089338 298.89925168 129.13498587 303.54268136 131.26260376 308.15975952 C132 310 132 310 132 312 C103.29 312 74.58 312 45 312 C41.98127003 305.35879407 39.03947276 298.80826945 36.390625 292.03125 C36.06607834 291.20809799 35.74153168 290.38494598 35.40715027 289.53684998 C34.35202017 286.85897162 33.30091138 284.17953644 32.25 281.5 C31.13146877 278.65603487 30.01213365 275.81238689 28.89280701 272.96873474 C28.11880836 271.00205209 27.34518163 269.03522302 26.57191467 267.06825256 C23.76595581 259.93355454 20.93991746 252.80701559 18.10546875 245.68359375 C16.92986306 242.72533613 15.75451118 239.76697778 14.57922363 236.80859375 C13.81900226 234.89686418 13.05769283 232.98556692 12.29528809 231.07470703 C11.2341302 228.4143033 10.17715383 225.75227435 9.12109375 223.08984375 C8.80319382 222.2960582 8.48529388 221.50227264 8.15776062 220.68443298 C6 215.22776972 6 215.22776972 6 213 C-25.68 213 -57.36 213 -90 213 C-87.96948183 206.90844548 -85.86931388 201.05687087 -83.359375 195.17578125 C-83.0047821 194.33734177 -82.65018921 193.49890228 -82.28485107 192.63505554 C-81.10990685 189.85944181 -79.9299941 187.08597022 -78.75 184.3125 C-77.90794594 182.32628089 -77.0661554 180.33995004 -76.22460938 178.35351562 C-68.69273797 160.58649692 -61.1205639 142.83651358 -53.55175781 125.08520508 C-47.50563136 110.90222322 -41.48858418 96.70736551 -35.5 82.5 C-28.7109077 66.39808397 -21.89750442 50.3065784 -15.05786133 34.22607422 C-14.02708907 31.80203903 -12.99696822 29.37772673 -11.9675293 26.953125 C-10.53232473 23.57341187 -9.0946334 20.19476749 -7.65625 16.81640625 C-7.22900635 15.80917007 -6.8017627 14.8019339 -6.36157227 13.76417542 C-4.37200123 9.09882484 -2.34104744 4.50008696 0 0 Z " fill="#FA0F00" transform="translate(278,181)"/>
</svg>
