<?xml version="1.0" encoding="UTF-8" ?>
<!DOCTYPE svg PUBLIC "-//W3C//DTD SVG 1.1//EN" "http://www.w3.org/Graphics/SVG/1.1/DTD/svg11.dtd">
<svg width="1500pt" height="1000pt" viewBox="0 0 1500 1000" version="1.1" xmlns="http://www.w3.org/2000/svg">
<g id="#f45d48ff">
<path fill="#f45d48" opacity="1.00" d=" M 0.00 0.00 L 1500.00 0.00 L 1500.00 1000.00 L 0.00 1000.00 L 0.00 0.00 M 886.12 317.01 C 885.85 376.35 886.07 435.69 886.00 495.04 C 885.90 514.94 888.56 535.40 897.58 553.37 C 904.16 566.48 915.20 577.62 929.08 582.80 C 949.70 590.53 973.44 587.96 992.77 577.79 C 1000.94 573.64 1008.17 567.94 1015.09 561.99 C 1004.87 549.32 994.61 536.67 984.41 523.98 C 976.27 530.73 966.16 536.92 955.14 535.32 C 948.98 534.70 943.80 530.24 941.45 524.65 C 936.47 513.44 937.45 500.88 937.38 488.93 C 937.37 465.63 937.38 442.32 937.37 419.02 C 957.52 418.97 977.66 419.02 997.81 418.99 C 997.80 404.20 997.82 389.41 997.81 374.62 C 977.66 374.62 957.52 374.63 937.38 374.62 C 937.37 355.42 937.38 336.21 937.37 317.00 C 920.29 317.00 903.20 317.00 886.12 317.01 M 293.57 409.54 C 278.31 427.81 269.34 451.22 268.57 475.02 C 267.65 498.35 274.56 521.90 287.96 541.03 C 305.45 566.40 334.22 583.68 364.92 586.78 C 388.74 589.40 413.32 583.67 433.58 570.89 C 433.82 581.07 432.18 591.43 427.46 600.54 C 419.54 616.61 403.64 628.49 385.92 631.29 C 372.43 633.63 358.30 630.52 346.70 623.35 C 338.32 638.22 329.79 653.01 321.45 667.91 C 336.97 677.27 354.82 682.81 372.96 683.43 C 395.77 684.32 418.77 677.65 437.60 664.76 C 463.22 647.48 480.98 618.92 484.56 588.17 C 486.03 574.82 485.15 561.37 485.38 547.97 C 485.37 490.28 485.38 432.58 485.37 374.88 C 468.29 374.87 451.21 374.87 434.13 374.88 C 434.12 379.06 434.12 383.25 434.13 387.44 C 413.48 374.22 388.28 368.32 363.93 371.26 C 336.68 374.28 310.99 388.43 293.57 409.54 M 763.74 373.72 C 748.73 377.94 735.50 388.02 727.32 401.28 C 718.29 416.06 717.05 435.24 723.91 451.12 C 729.64 464.41 740.41 474.81 752.21 482.82 C 764.58 491.38 778.61 497.00 791.71 504.24 C 798.01 508.01 804.59 512.40 807.84 519.24 C 810.31 524.38 808.81 530.79 804.64 534.59 C 797.39 541.78 785.91 542.32 776.59 539.52 C 763.83 535.45 752.39 527.57 743.70 517.41 C 733.11 528.93 722.59 540.52 712.01 552.07 C 720.37 563.01 730.93 572.44 743.35 578.50 C 761.33 587.34 782.20 589.04 801.79 585.80 C 817.61 583.21 832.73 575.41 843.12 563.07 C 859.76 544.21 861.95 514.82 850.11 492.96 C 845.16 483.65 837.12 476.47 828.59 470.49 C 813.43 459.82 796.17 452.77 779.93 443.99 C 775.86 441.62 771.23 439.24 769.16 434.75 C 766.96 430.27 768.57 424.53 772.52 421.59 C 778.18 417.13 786.06 416.91 792.86 418.22 C 804.28 420.99 813.67 428.73 821.85 436.83 C 832.49 426.16 843.04 415.41 853.71 404.78 C 842.31 389.29 825.52 377.81 806.82 373.19 C 792.73 369.75 777.72 369.80 763.74 373.72 M 1107.50 371.68 C 1086.67 374.70 1066.86 384.12 1051.26 398.22 C 1031.34 416.04 1018.39 441.44 1015.86 468.06 C 1013.19 493.63 1020.04 520.05 1034.81 541.10 C 1045.22 556.00 1059.38 568.29 1075.71 576.31 C 1095.77 586.30 1119.02 589.66 1141.10 585.88 C 1171.62 580.89 1199.31 561.81 1215.24 535.36 C 1227.98 514.51 1233.29 489.29 1230.12 465.07 C 1226.27 433.51 1207.59 404.24 1180.70 387.31 C 1159.24 373.49 1132.72 367.91 1107.50 371.68 M 519.88 374.76 C 519.86 410.53 519.88 446.29 519.87 482.06 C 519.78 502.35 521.55 523.26 530.12 541.93 C 537.17 557.69 549.69 570.95 565.04 578.85 C 581.27 587.15 600.17 588.45 618.03 586.53 C 633.25 584.87 648.01 578.65 659.37 568.32 C 672.33 557.17 680.77 541.51 684.79 525.04 C 689.90 505.44 689.11 485.05 689.12 464.98 C 689.18 434.91 689.27 404.83 689.24 374.76 C 672.10 374.74 654.96 374.74 637.82 374.76 C 637.79 407.84 637.82 440.91 637.81 473.99 C 637.91 485.94 638.03 498.01 635.71 509.79 C 634.39 516.00 632.45 522.35 628.32 527.32 C 624.27 531.95 619.16 535.98 613.07 537.44 C 603.40 539.71 592.21 538.35 584.77 531.30 C 576.53 524.81 573.83 514.04 572.51 504.13 C 570.82 491.48 571.46 478.70 571.38 465.99 C 571.37 435.58 571.39 405.17 571.37 374.76 C 554.21 374.75 537.04 374.75 519.88 374.76 Z" />
<path fill="#f45d48" opacity="1.00" d=" M 366.57 422.76 C 380.90 420.21 396.18 423.47 408.15 431.77 C 419.29 439.35 427.63 450.98 431.10 464.01 C 435.19 478.94 432.87 495.51 424.74 508.69 C 418.19 519.48 407.97 527.99 396.14 532.41 C 381.86 537.84 365.34 537.09 351.66 530.28 C 338.03 523.72 327.29 511.45 322.56 497.09 C 317.75 482.95 318.88 466.95 325.53 453.60 C 333.37 437.63 349.01 425.76 366.57 422.76 Z" />
<path fill="#f45d48" opacity="1.00" d=" M 1113.54 422.75 C 1132.61 419.25 1153.07 426.61 1165.69 441.28 C 1179.32 456.49 1183.61 479.26 1176.49 498.39 C 1170.73 514.56 1157.29 527.76 1140.97 533.12 C 1127.23 537.75 1111.70 536.76 1098.67 530.41 C 1086.69 524.63 1076.86 514.55 1071.45 502.40 C 1064.43 487.01 1064.78 468.47 1072.47 453.39 C 1080.32 437.47 1096.01 425.67 1113.54 422.75 Z" />
</g>
<g id="#ffffffff">
<path fill="#ffffff" opacity="1.00" d=" M 886.12 317.01 C 903.20 317.00 920.29 317.00 937.37 317.00 C 937.38 336.21 937.37 355.42 937.38 374.62 C 957.52 374.63 977.66 374.62 997.81 374.62 C 997.82 389.41 997.80 404.20 997.81 418.99 C 977.66 419.02 957.52 418.97 937.37 419.02 C 937.38 442.32 937.37 465.63 937.38 488.93 C 937.45 500.88 936.47 513.44 941.45 524.65 C 943.80 530.24 948.98 534.70 955.14 535.32 C 966.16 536.92 976.27 530.73 984.41 523.98 C 994.61 536.67 1004.87 549.32 1015.09 561.99 C 1008.17 567.94 1000.94 573.64 992.77 577.79 C 973.44 587.96 949.70 590.53 929.08 582.80 C 915.20 577.62 904.16 566.48 897.58 553.37 C 888.56 535.40 885.90 514.94 886.00 495.04 C 886.07 435.69 885.85 376.35 886.12 317.01 Z" />
<path fill="#ffffff" opacity="1.00" d=" M 293.57 409.54 C 310.99 388.43 336.68 374.28 363.93 371.26 C 388.28 368.32 413.48 374.22 434.13 387.44 C 434.12 383.25 434.12 379.06 434.13 374.88 C 451.21 374.87 468.29 374.87 485.37 374.88 C 485.38 432.58 485.37 490.28 485.38 547.97 C 485.15 561.37 486.03 574.82 484.56 588.17 C 480.98 618.92 463.22 647.48 437.60 664.76 C 418.77 677.65 395.77 684.32 372.96 683.43 C 354.82 682.81 336.97 677.27 321.45 667.91 C 329.79 653.01 338.32 638.22 346.70 623.35 C 358.30 630.52 372.43 633.63 385.92 631.29 C 403.64 628.49 419.54 616.61 427.46 600.54 C 432.18 591.43 433.82 581.07 433.58 570.89 C 413.32 583.67 388.74 589.40 364.92 586.78 C 334.22 583.68 305.45 566.40 287.96 541.03 C 274.56 521.90 267.65 498.35 268.57 475.02 C 269.34 451.22 278.31 427.81 293.57 409.54 M 366.57 422.76 C 349.01 425.76 333.37 437.63 325.53 453.60 C 318.88 466.95 317.75 482.95 322.56 497.09 C 327.29 511.45 338.03 523.72 351.66 530.28 C 365.34 537.09 381.86 537.84 396.14 532.41 C 407.97 527.99 418.19 519.48 424.74 508.69 C 432.87 495.51 435.19 478.94 431.10 464.01 C 427.63 450.98 419.29 439.35 408.15 431.77 C 396.18 423.47 380.90 420.21 366.57 422.76 Z" />
<path fill="#ffffff" opacity="1.00" d=" M 763.74 373.72 C 777.72 369.80 792.73 369.75 806.82 373.19 C 825.52 377.81 842.31 389.29 853.71 404.78 C 843.04 415.41 832.49 426.16 821.85 436.83 C 813.67 428.73 804.28 420.99 792.86 418.22 C 786.06 416.91 778.18 417.13 772.52 421.59 C 768.57 424.53 766.96 430.27 769.16 434.75 C 771.23 439.24 775.86 441.62 779.93 443.99 C 796.17 452.77 813.43 459.82 828.59 470.49 C 837.12 476.47 845.16 483.65 850.11 492.96 C 861.95 514.82 859.76 544.21 843.12 563.07 C 832.73 575.41 817.61 583.21 801.79 585.80 C 782.20 589.04 761.33 587.34 743.35 578.50 C 730.93 572.44 720.37 563.01 712.01 552.07 C 722.59 540.52 733.11 528.93 743.70 517.41 C 752.39 527.57 763.83 535.45 776.59 539.52 C 785.91 542.32 797.39 541.78 804.64 534.59 C 808.81 530.79 810.31 524.38 807.84 519.24 C 804.59 512.40 798.01 508.01 791.71 504.24 C 778.61 497.00 764.58 491.38 752.21 482.82 C 740.41 474.81 729.64 464.41 723.91 451.12 C 717.05 435.24 718.29 416.06 727.32 401.28 C 735.50 388.02 748.73 377.94 763.74 373.72 Z" />
<path fill="#ffffff" opacity="1.00" d=" M 1107.50 371.68 C 1132.72 367.91 1159.24 373.49 1180.70 387.31 C 1207.59 404.24 1226.27 433.51 1230.12 465.07 C 1233.29 489.29 1227.98 514.51 1215.24 535.36 C 1199.31 561.81 1171.62 580.89 1141.10 585.88 C 1119.02 589.66 1095.77 586.30 1075.71 576.31 C 1059.38 568.29 1045.22 556.00 1034.81 541.10 C 1020.04 520.05 1013.19 493.63 1015.86 468.06 C 1018.39 441.44 1031.34 416.04 1051.26 398.22 C 1066.86 384.12 1086.67 374.70 1107.50 371.68 M 1113.54 422.75 C 1096.01 425.67 1080.32 437.47 1072.47 453.39 C 1064.78 468.47 1064.43 487.01 1071.45 502.40 C 1076.86 514.55 1086.69 524.63 1098.67 530.41 C 1111.70 536.76 1127.23 537.75 1140.97 533.12 C 1157.29 527.76 1170.73 514.56 1176.49 498.39 C 1183.61 479.26 1179.32 456.49 1165.69 441.28 C 1153.07 426.61 1132.61 419.25 1113.54 422.75 Z" />
<path fill="#ffffff" opacity="1.00" d=" M 519.88 374.76 C 537.04 374.75 554.21 374.75 571.37 374.76 C 571.39 405.17 571.37 435.58 571.38 465.99 C 571.46 478.70 570.82 491.48 572.51 504.13 C 573.83 514.04 576.53 524.81 584.77 531.30 C 592.21 538.35 603.40 539.71 613.07 537.44 C 619.16 535.98 624.27 531.95 628.32 527.32 C 632.45 522.35 634.39 516.00 635.71 509.79 C 638.03 498.01 637.91 485.94 637.81 473.99 C 637.82 440.91 637.79 407.84 637.82 374.76 C 654.96 374.74 672.10 374.74 689.24 374.76 C 689.27 404.83 689.18 434.91 689.12 464.98 C 689.11 485.05 689.90 505.44 684.79 525.04 C 680.77 541.51 672.33 557.17 659.37 568.32 C 648.01 578.65 633.25 584.87 618.03 586.53 C 600.17 588.45 581.27 587.15 565.04 578.85 C 549.69 570.95 537.17 557.69 530.12 541.93 C 521.55 523.26 519.78 502.35 519.87 482.06 C 519.88 446.29 519.86 410.53 519.88 374.76 Z" />
</g>
</svg>
